<svg xmlns="http://www.w3.org/2000/svg" viewBox="0 0 512 512" width="512" height="512">
  <rect width="512" height="512" rx="96" fill="#000000"/>
  <g transform="translate(56, 56) scale(0.78)" fill="none" stroke="#00f3ff" stroke-width="28" stroke-linecap="round" stroke-linejoin="round">
    <!-- Robot head -->
    <path d="M120 240 C120 180, 160 140, 240 140 L320 140 C380 140, 420 180, 420 240 L420 340 C420 400, 380 440, 320 440 L200 440 C140 440, 120 400, 120 340 Z"/>
    <!-- Left ear -->
    <path d="M120 260 L90 260 C80 260, 72 268, 72 278 L72 322 C72 332, 80 340, 90 340 L120 340"/>
    <!-- Right ear -->
    <path d="M420 260 L450 260 C460 260, 468 268, 468 278 L468 322 C468 332, 460 340, 450 340 L420 340"/>
    <!-- Left eye -->
    <circle cx="220" cy="310" r="18" fill="#00f3ff"/>
    <!-- Right eye -->
    <circle cx="320" cy="310" r="18" fill="#00f3ff"/>
    <!-- Mouth -->
    <line x1="250" y1="370" x2="290" y2="370"/>
    <!-- Left eye slot -->
    <line x1="280" y1="360" x2="280" y2="380"/>
    <!-- Antenna -->
    <line x1="160" y1="140" x2="130" y2="60"/>
    <circle cx="130" cy="48" r="20" fill="none"/>
    <circle cx="130" cy="48" r="6" fill="#00f3ff"/>
    <!-- Speech bubble -->
    <rect x="300" y="20" width="160" height="110" rx="16"/>
    <path d="M340 130 L320 155 L370 130"/>
    <!-- Speech bubble lines -->
    <line x1="330" y1="55" x2="430" y2="55"/>
    <line x1="330" y1="80" x2="430" y2="80"/>
    <line x1="330" y1="105" x2="400" y2="105"/>
  </g>
</svg>
